<?xml version="1.0" encoding="utf-8"?>
<!-- Generated by Mocodo 4.2.4 -->
<svg width="471" height="330" viewBox="0 0 471 330" xmlns="http://www.w3.org/2000/svg">
<rect x="0" y="0" width="471" height="330" fill="#ffffbf" stroke="none" stroke-width="0"/>

<!-- Association APPARTENIR -->
<g>
	<line x1="188" y1="60" x2="62" y2="60" stroke="#f46d43" stroke-width="2"/>
	<line x1="62" y1="169" x2="62" y2="60" stroke="#f46d43" stroke-width="2"/>
	<g>
		<path d="M94 35 a14 14 90 0 1 14 14 V60 h-92 V49 a14 14 90 0 1 14 -14" fill="#fdae61" stroke="#fdae61" stroke-width="0"/>
		<path d="M108 60 v11 a14 14 90 0 1 -14 14 H30 a14 14 90 0 1 -14 -14 V60 H92" fill="#fee08b" stroke="#fee08b" stroke-width="0"/>
		<rect x="16" y="35" width="92" height="50" fill="none" rx="14" stroke="#f46d43" stroke-width="2"/>
		<line x1="16" y1="60" x2="108" y2="60" stroke="#f46d43" stroke-width="1"/>
		<text x="23" y="52.75" fill="#000000" font-family="Verdana" font-size="12">APPARTENIR</text>
	</g>
	<text x="120" y="77" fill="#1a9850" font-family="Verdana" font-size="12">0,N</text>
	<text x="67" y="119" fill="#1a9850" font-family="Verdana" font-size="12">0,1</text>
</g>

<!-- Association ETAPE_ARR -->
<g>
	<line x1="301" y1="169" x2="301" y2="60" stroke="#f46d43" stroke-width="2"/>
	<line x1="188" y1="60" x2="301" y2="60" stroke="#f46d43" stroke-width="2"/>
	<g>
		<path d="M325 35 a14 14 90 0 1 14 14 V60 h-76 V49 a14 14 90 0 1 14 -14" fill="#fdae61" stroke="#fdae61" stroke-width="0"/>
		<path d="M339 60 v11 a14 14 90 0 1 -14 14 H277 a14 14 90 0 1 -14 -14 V60 H76" fill="#fee08b" stroke="#fee08b" stroke-width="0"/>
		<rect x="263" y="35" width="76" height="50" fill="none" rx="14" stroke="#f46d43" stroke-width="2"/>
		<line x1="263" y1="60" x2="339" y2="60" stroke="#f46d43" stroke-width="1"/>
		<text x="271" y="52.75" fill="#000000" font-family="Verdana" font-size="12">Etape_Arr</text>
	</g>
	<text x="306" y="102" fill="#1a9850" font-family="Verdana" font-size="12">0,1</text>
	<text x="234" y="77" fill="#1a9850" font-family="Verdana" font-size="12">1,1</text>
</g>

<!-- Association ETAPE_DEP -->
<g>
	<line x1="301" y1="169" x2="188" y2="169" stroke="#f46d43" stroke-width="2"/>
	<line x1="188" y1="60" x2="188" y2="169" stroke="#f46d43" stroke-width="2"/>
	<g>
		<path d="M215 144 a14 14 90 0 1 14 14 V169 h-82 V158 a14 14 90 0 1 14 -14" fill="#fdae61" stroke="#fdae61" stroke-width="0"/>
		<path d="M229 169 v11 a14 14 90 0 1 -14 14 H161 a14 14 90 0 1 -14 -14 V169 H82" fill="#fee08b" stroke="#fee08b" stroke-width="0"/>
		<rect x="147" y="144" width="82" height="50" fill="none" rx="14" stroke="#f46d43" stroke-width="2"/>
		<line x1="147" y1="169" x2="229" y2="169" stroke="#f46d43" stroke-width="1"/>
		<text x="155" y="161.75" fill="#000000" font-family="Verdana" font-size="12">Etape_Dep</text>
	</g>
	<text x="235" y="186" fill="#1a9850" font-family="Verdana" font-size="12">0,1</text>
	<text x="193" y="128" fill="#1a9850" font-family="Verdana" font-size="12">1,1</text>
</g>

<!-- Association CONTENIR -->
<g>
	<line x1="413" y1="287" x2="413" y2="169" stroke="#f46d43" stroke-width="2"/>
	<line x1="301" y1="169" x2="413" y2="169" stroke="#f46d43" stroke-width="2"/>
	<g>
		<path d="M439 144 a14 14 90 0 1 14 14 V169 h-80 V158 a14 14 90 0 1 14 -14" fill="#fdae61" stroke="#fdae61" stroke-width="0"/>
		<path d="M453 169 v11 a14 14 90 0 1 -14 14 H387 a14 14 90 0 1 -14 -14 V169 H80" fill="#fee08b" stroke="#fee08b" stroke-width="0"/>
		<rect x="373" y="144" width="80" height="50" fill="none" rx="14" stroke="#f46d43" stroke-width="2"/>
		<line x1="373" y1="169" x2="453" y2="169" stroke="#f46d43" stroke-width="1"/>
		<text x="381" y="161.75" fill="#000000" font-family="Verdana" font-size="12">CONTENIR</text>
	</g>
	<text x="418" y="245" fill="#1a9850" font-family="Verdana" font-size="12">0,N</text>
	<text x="346" y="186" fill="#1a9850" font-family="Verdana" font-size="12">0,N</text>
</g>

<!-- Entity ETAPE -->
<g>
	<g>
		<rect x="147" y="9" width="82" height="25" fill="#a6d96a" stroke="none" stroke-width="0" opacity="1"/>
		<rect x="147" y="34" width="82" height="77" fill="#d9ef8b" stroke="none" stroke-width="0" opacity="1"/>
		<rect x="147" y="9" width="82" height="102" fill="none" stroke="#66bd63" stroke-width="2" opacity="1"/>
		<line x1="147" y1="34" x2="229" y2="34" stroke="#66bd63" stroke-width="1"/>
	</g>
	<text x="169" y="26.75" fill="#000000" font-family="Verdana" font-size="12">ETAPE</text>
	<text x="152" y="51.8" fill="#000000" font-family="Verdana" font-size="12">code_Etape</text>
	<line x1="152" y1="54" x2="223" y2="54" stroke="#000000" stroke-width="1"/>
	<text x="152" y="68.8" fill="#000000" font-family="Verdana" font-size="12">num_Etape</text>
	<text x="152" y="85.8" fill="#000000" font-family="Verdana" font-size="12">latitude</text>
	<text x="152" y="102.8" fill="#000000" font-family="Verdana" font-size="12">longitude</text>
</g>

<!-- Entity CATEGORIE -->
<g>
	<g>
		<rect x="9" y="127" width="106" height="25" fill="#a6d96a" stroke="none" stroke-width="0" opacity="1"/>
		<rect x="9" y="152" width="106" height="59" fill="#d9ef8b" stroke="none" stroke-width="0" opacity="1"/>
		<rect x="9" y="127" width="106" height="84" fill="none" stroke="#66bd63" stroke-width="2" opacity="1"/>
		<line x1="9" y1="152" x2="115" y2="152" stroke="#66bd63" stroke-width="1"/>
	</g>
	<text x="26" y="144.75" fill="#000000" font-family="Verdana" font-size="12">CATEGORIE</text>
	<text x="14" y="169.8" fill="#000000" font-family="Verdana" font-size="12">id_Categorie</text>
	<line x1="14" y1="172" x2="91" y2="172" stroke="#000000" stroke-width="1"/>
	<text x="14" y="186.8" fill="#000000" font-family="Verdana" font-size="12">nom_Cat</text>
	<text x="14" y="203.8" fill="#000000" font-family="Verdana" font-size="12">description_Cat</text>
</g>

<!-- Entity TRONCONS -->
<g>
	<g>
		<rect x="261" y="110" width="80" height="25" fill="#a6d96a" stroke="none" stroke-width="0" opacity="1"/>
		<rect x="261" y="135" width="80" height="93" fill="#d9ef8b" stroke="none" stroke-width="0" opacity="1"/>
		<rect x="261" y="110" width="80" height="118" fill="none" stroke="#66bd63" stroke-width="2" opacity="1"/>
		<line x1="261" y1="135" x2="341" y2="135" stroke="#66bd63" stroke-width="1"/>
	</g>
	<text x="266" y="127.75" fill="#000000" font-family="Verdana" font-size="12">TRONCONS</text>
	<text x="266" y="152.8" fill="#000000" font-family="Verdana" font-size="12">id_Tr</text>
	<line x1="266" y1="155" x2="298" y2="155" stroke="#000000" stroke-width="1"/>
	<text x="266" y="169.8" fill="#000000" font-family="Verdana" font-size="12">nom_Tr</text>
	<text x="266" y="186.8" fill="#000000" font-family="Verdana" font-size="12">distance</text>
	<text x="266" y="203.8" fill="#000000" font-family="Verdana" font-size="12">Type_Sol</text>
</g>

<!-- Entity PARCOURS -->
<g>
	<g>
		<rect x="364" y="253" width="98" height="25" fill="#a6d96a" stroke="none" stroke-width="0" opacity="1"/>
		<rect x="364" y="278" width="98" height="43" fill="#d9ef8b" stroke="none" stroke-width="0" opacity="1"/>
		<rect x="364" y="253" width="98" height="68" fill="none" stroke="#66bd63" stroke-width="2" opacity="1"/>
		<line x1="364" y1="278" x2="462" y2="278" stroke="#66bd63" stroke-width="1"/>
	</g>
	<text x="379" y="270.75" fill="#000000" font-family="Verdana" font-size="12">PARCOURS</text>
	<text x="369" y="295.8" fill="#000000" font-family="Verdana" font-size="12">id_Parcours</text>
	<line x1="369" y1="298" x2="440" y2="298" stroke="#000000" stroke-width="1"/>
	<text x="369" y="312.8" fill="#000000" font-family="Verdana" font-size="12">nom_Parcours</text>
</g>
</svg>